<mxfile host="app.diagrams.net" modified="2020-12-01T15:29:11.007Z" agent="5.0 (Windows)" etag="4U1y1kEr9mBhw5rnVXqA" version="13.10.5" type="github">
  <diagram name="Page-1" id="b5b7bab2-c9e2-2cf4-8b2a-24fd1a2a6d21">
    <mxGraphModel dx="1673" dy="898" grid="1" gridSize="10" guides="1" tooltips="1" connect="1" arrows="1" fold="1" page="1" pageScale="1" pageWidth="827" pageHeight="1169" background="#ffffff" math="0" shadow="0">
      <root>
        <mxCell id="0" />
        <mxCell id="1" parent="0" />
        <mxCell id="i7vJuUS5B3MQQRCEf9dq-30" value="" style="rounded=0;whiteSpace=wrap;html=1;dashed=1;fillColor=#d5e8d4;strokeColor=#82b366;" parent="1" vertex="1">
          <mxGeometry x="20" y="130" width="770" height="300" as="geometry" />
        </mxCell>
        <mxCell id="6e0c8c40b5770093-68" style="edgeStyle=elbowEdgeStyle;rounded=0;html=1;entryX=0.628;entryY=0.26;entryPerimeter=0;dashed=1;labelBackgroundColor=none;startFill=0;endArrow=open;endFill=0;endSize=10;fontFamily=Verdana;fontSize=10;" parent="1" target="6e0c8c40b5770093-53" edge="1">
          <mxGeometry relative="1" as="geometry">
            <mxPoint x="658" y="904.5" as="sourcePoint" />
          </mxGeometry>
        </mxCell>
        <mxCell id="6e0c8c40b5770093-69" style="edgeStyle=elbowEdgeStyle;rounded=0;html=1;entryX=0.643;entryY=0.246;entryPerimeter=0;dashed=1;labelBackgroundColor=none;startFill=0;endArrow=open;endFill=0;endSize=10;fontFamily=Verdana;fontSize=10;" parent="1" target="6e0c8c40b5770093-56" edge="1">
          <mxGeometry relative="1" as="geometry">
            <mxPoint x="827" y="904.5" as="sourcePoint" />
          </mxGeometry>
        </mxCell>
        <mxCell id="6e0c8c40b5770093-52" value="" style="group" parent="1" vertex="1" connectable="0">
          <mxGeometry x="576.5" y="954.5694795496323" width="130" height="70" as="geometry" />
        </mxCell>
        <mxCell id="6e0c8c40b5770093-53" value="package" style="shape=folder;fontStyle=1;spacingTop=10;tabWidth=50;tabHeight=17;tabPosition=left;html=1;rounded=0;shadow=0;comic=0;labelBackgroundColor=none;strokeWidth=1;fontFamily=Verdana;fontSize=10;align=center;" parent="6e0c8c40b5770093-52" vertex="1">
          <mxGeometry width="130" height="70" as="geometry" />
        </mxCell>
        <mxCell id="6e0c8c40b5770093-54" value="" style="triangle;whiteSpace=wrap;html=1;rounded=0;shadow=0;comic=0;labelBackgroundColor=none;strokeWidth=1;fontFamily=Verdana;fontSize=10;align=center;rotation=-90;" parent="6e0c8c40b5770093-52" vertex="1">
          <mxGeometry x="100" y="25" width="15" height="20" as="geometry" />
        </mxCell>
        <mxCell id="6e0c8c40b5770093-55" value="" style="group" parent="1" vertex="1" connectable="0">
          <mxGeometry x="743.5" y="954.5694795496323" width="130" height="70" as="geometry" />
        </mxCell>
        <mxCell id="6e0c8c40b5770093-56" value="package" style="shape=folder;fontStyle=1;spacingTop=10;tabWidth=50;tabHeight=17;tabPosition=left;html=1;rounded=0;shadow=0;comic=0;labelBackgroundColor=none;strokeWidth=1;fontFamily=Verdana;fontSize=10;align=center;" parent="6e0c8c40b5770093-55" vertex="1">
          <mxGeometry width="130" height="70" as="geometry" />
        </mxCell>
        <mxCell id="6e0c8c40b5770093-57" value="" style="triangle;whiteSpace=wrap;html=1;rounded=0;shadow=0;comic=0;labelBackgroundColor=none;strokeWidth=1;fontFamily=Verdana;fontSize=10;align=center;rotation=-90;" parent="6e0c8c40b5770093-55" vertex="1">
          <mxGeometry x="100" y="25" width="15" height="20" as="geometry" />
        </mxCell>
        <mxCell id="i7vJuUS5B3MQQRCEf9dq-25" style="edgeStyle=none;rounded=0;orthogonalLoop=1;jettySize=auto;html=1;exitX=0;exitY=0;exitDx=420;exitDy=20;exitPerimeter=0;" parent="1" source="i7vJuUS5B3MQQRCEf9dq-17" target="i7vJuUS5B3MQQRCEf9dq-24" edge="1">
          <mxGeometry relative="1" as="geometry" />
        </mxCell>
        <mxCell id="i7vJuUS5B3MQQRCEf9dq-17" value="Сервер приложений Колибри" style="shape=folder;fontStyle=1;tabWidth=180;tabHeight=20;tabPosition=left;html=1;boundedLbl=1;labelInHeader=1;" parent="1" vertex="1">
          <mxGeometry x="60" y="170" width="660" height="100" as="geometry" />
        </mxCell>
        <mxCell id="i7vJuUS5B3MQQRCEf9dq-18" value="Управление данными" style="html=1;" parent="i7vJuUS5B3MQQRCEf9dq-17" vertex="1">
          <mxGeometry width="140" height="30" relative="1" as="geometry">
            <mxPoint x="20" y="50" as="offset" />
          </mxGeometry>
        </mxCell>
        <mxCell id="i7vJuUS5B3MQQRCEf9dq-20" value="Безопасность (ролевая модель)" style="html=1;" parent="i7vJuUS5B3MQQRCEf9dq-17" vertex="1">
          <mxGeometry x="179.9977327582113" y="50" width="249.06708944985257" height="30" as="geometry" />
        </mxCell>
        <mxCell id="i7vJuUS5B3MQQRCEf9dq-23" value="Отчётная система" style="html=1;" parent="i7vJuUS5B3MQQRCEf9dq-17" vertex="1">
          <mxGeometry x="460.0020353979007" y="50" width="188.14030526323305" height="30" as="geometry" />
        </mxCell>
        <mxCell id="i7vJuUS5B3MQQRCEf9dq-24" value="PostgreSQL WH" style="shape=cylinder3;whiteSpace=wrap;html=1;boundedLbl=1;backgroundOutline=1;size=15;" parent="1" vertex="1">
          <mxGeometry x="360" y="20" width="90" height="90" as="geometry" />
        </mxCell>
        <mxCell id="i7vJuUS5B3MQQRCEf9dq-26" value="WH API (хранимые процедуры) " style="text;html=1;align=center;verticalAlign=middle;resizable=0;points=[];autosize=1;" parent="1" vertex="1">
          <mxGeometry x="375" y="150" width="190" height="20" as="geometry" />
        </mxCell>
        <mxCell id="i7vJuUS5B3MQQRCEf9dq-27" value="Модель предметной области" style="shape=note;whiteSpace=wrap;html=1;backgroundOutline=1;darkOpacity=0.05;" parent="1" vertex="1">
          <mxGeometry x="60" y="300" width="80" height="100" as="geometry" />
        </mxCell>
        <mxCell id="i7vJuUS5B3MQQRCEf9dq-28" value="Настройки (отчёты макросы)" style="shape=note;whiteSpace=wrap;html=1;backgroundOutline=1;darkOpacity=0.05;" parent="1" vertex="1">
          <mxGeometry x="170" y="300" width="80" height="100" as="geometry" />
        </mxCell>
        <mxCell id="i7vJuUS5B3MQQRCEf9dq-29" value="Диалоговые формы" style="shape=note;whiteSpace=wrap;html=1;backgroundOutline=1;darkOpacity=0.05;" parent="1" vertex="1">
          <mxGeometry x="280" y="300" width="80" height="100" as="geometry" />
        </mxCell>
        <mxCell id="i7vJuUS5B3MQQRCEf9dq-37" style="edgeStyle=none;rounded=0;orthogonalLoop=1;jettySize=auto;html=1;exitX=0;exitY=0;exitDx=335;exitDy=20;exitPerimeter=0;" parent="1" source="i7vJuUS5B3MQQRCEf9dq-31" target="i7vJuUS5B3MQQRCEf9dq-30" edge="1">
          <mxGeometry relative="1" as="geometry" />
        </mxCell>
        <mxCell id="i7vJuUS5B3MQQRCEf9dq-35" value="Настройки импорта" style="shape=note;whiteSpace=wrap;html=1;backgroundOutline=1;darkOpacity=0.05;" parent="1" vertex="1">
          <mxGeometry x="390" y="300" width="80" height="100" as="geometry" />
        </mxCell>
        <mxCell id="i7vJuUS5B3MQQRCEf9dq-36" value="Платформа Колибри" style="text;html=1;strokeColor=#3700CC;fillColor=#6a00ff;align=center;verticalAlign=middle;whiteSpace=wrap;rounded=0;dashed=1;fontColor=#ffffff;" parent="1" vertex="1">
          <mxGeometry x="587" y="410" width="203" height="20" as="geometry" />
        </mxCell>
        <mxCell id="i7vJuUS5B3MQQRCEf9dq-38" value="JSON API" style="text;html=1;align=center;verticalAlign=middle;resizable=0;points=[];autosize=1;" parent="1" vertex="1">
          <mxGeometry x="300" y="500" width="70" height="20" as="geometry" />
        </mxCell>
        <mxCell id="i7vJuUS5B3MQQRCEf9dq-42" value="С использованием Sencha ExtJS и других открытых бибиотек" style="text;html=1;strokeColor=none;fillColor=none;align=center;verticalAlign=middle;whiteSpace=wrap;rounded=0;dashed=1;" parent="1" vertex="1">
          <mxGeometry x="20" y="610" width="364" height="30" as="geometry" />
        </mxCell>
        <mxCell id="iGylrA7GRQRQv3eG05Y3-2" value="" style="rounded=0;whiteSpace=wrap;html=1;dashed=1;" vertex="1" parent="1">
          <mxGeometry x="20" y="540" width="770" height="300" as="geometry" />
        </mxCell>
        <mxCell id="iGylrA7GRQRQv3eG05Y3-3" value="Веб-сервер (например nginx)" style="text;html=1;strokeColor=#3700CC;fillColor=#6a00ff;align=center;verticalAlign=middle;whiteSpace=wrap;rounded=0;dashed=1;fontColor=#ffffff;" vertex="1" parent="1">
          <mxGeometry x="610" y="820" width="180" height="20" as="geometry" />
        </mxCell>
        <mxCell id="i7vJuUS5B3MQQRCEf9dq-31" value="Стандартный Web клиент" style="shape=folder;fontStyle=1;tabWidth=180;tabHeight=20;tabPosition=left;html=1;boundedLbl=1;labelInHeader=1;fillColor=#d5e8d4;strokeColor=#82b366;" parent="1" vertex="1">
          <mxGeometry x="37.5" y="560" width="430" height="100" as="geometry" />
        </mxCell>
        <mxCell id="i7vJuUS5B3MQQRCEf9dq-32" value="Облочка" style="html=1;" parent="i7vJuUS5B3MQQRCEf9dq-31" vertex="1">
          <mxGeometry width="160" height="30" relative="1" as="geometry">
            <mxPoint x="20" y="50" as="offset" />
          </mxGeometry>
        </mxCell>
        <mxCell id="i7vJuUS5B3MQQRCEf9dq-39" value="Отображение диалоговых форм" style="html=1;" parent="i7vJuUS5B3MQQRCEf9dq-31" vertex="1">
          <mxGeometry x="200" y="50" width="200" height="30" as="geometry" />
        </mxCell>
        <mxCell id="i7vJuUS5B3MQQRCEf9dq-49" value="Разрабатывается с нуля" style="text;html=1;strokeColor=#b85450;fillColor=#f8cecc;align=center;verticalAlign=middle;whiteSpace=wrap;rounded=0;dashed=1;" parent="1" vertex="1">
          <mxGeometry x="467.5" y="700" width="173" height="20" as="geometry" />
        </mxCell>
        <mxCell id="i7vJuUS5B3MQQRCEf9dq-44" style="edgeStyle=none;rounded=0;orthogonalLoop=1;jettySize=auto;html=1;exitX=0.876;exitY=0.3;exitDx=0;exitDy=0;exitPerimeter=0;" parent="1" source="iGylrA7GRQRQv3eG05Y3-5" target="i7vJuUS5B3MQQRCEf9dq-30" edge="1">
          <mxGeometry relative="1" as="geometry">
            <mxPoint x="650.6207366984995" y="560" as="sourcePoint" />
          </mxGeometry>
        </mxCell>
        <mxCell id="i7vJuUS5B3MQQRCEf9dq-46" value="Получает и сохраняет данные через API" style="edgeLabel;html=1;align=center;verticalAlign=middle;resizable=0;points=[];" parent="i7vJuUS5B3MQQRCEf9dq-44" vertex="1" connectable="0">
          <mxGeometry x="-0.3299" y="-1" relative="1" as="geometry">
            <mxPoint x="-53.48" y="-118.6" as="offset" />
          </mxGeometry>
        </mxCell>
        <mxCell id="iGylrA7GRQRQv3eG05Y3-13" style="edgeStyle=orthogonalEdgeStyle;rounded=0;orthogonalLoop=1;jettySize=auto;html=1;exitX=0;exitY=0;exitDx=90;exitDy=0;exitPerimeter=0;" edge="1" parent="1" source="iGylrA7GRQRQv3eG05Y3-5" target="i7vJuUS5B3MQQRCEf9dq-31">
          <mxGeometry relative="1" as="geometry" />
        </mxCell>
        <mxCell id="iGylrA7GRQRQv3eG05Y3-5" value="Надстройка ПОАР" style="shape=folder;fontStyle=1;tabWidth=180;tabHeight=20;tabPosition=left;html=1;boundedLbl=1;labelInHeader=1;fillColor=#d5e8d4;strokeColor=#82b366;" vertex="1" parent="1">
          <mxGeometry x="290" y="700" width="490" height="100" as="geometry" />
        </mxCell>
        <mxCell id="iGylrA7GRQRQv3eG05Y3-6" value="Графический компонент &lt;br&gt;для визуализации &lt;br&gt;структуры АСУТП" style="html=1;" vertex="1" parent="iGylrA7GRQRQv3eG05Y3-5">
          <mxGeometry width="160" height="50" relative="1" as="geometry">
            <mxPoint x="10" y="40" as="offset" />
          </mxGeometry>
        </mxCell>
        <mxCell id="iGylrA7GRQRQv3eG05Y3-9" value="Графический компонент &lt;br&gt;для визуализации &lt;br&gt;дерева отказов" style="html=1;" vertex="1" parent="iGylrA7GRQRQv3eG05Y3-5">
          <mxGeometry x="179.99913043478261" y="40" width="166.5041304347826" height="50" as="geometry" />
        </mxCell>
        <mxCell id="iGylrA7GRQRQv3eG05Y3-10" value="Расчётный модуль" style="html=1;" vertex="1" parent="iGylrA7GRQRQv3eG05Y3-5">
          <mxGeometry x="360.005" y="40" width="121.275" height="50" as="geometry" />
        </mxCell>
        <mxCell id="iGylrA7GRQRQv3eG05Y3-11" value="Поставляется по желанию" style="text;html=1;strokeColor=#6c8ebf;fillColor=#dae8fc;align=center;verticalAlign=middle;whiteSpace=wrap;rounded=0;dashed=1;" vertex="1" parent="1">
          <mxGeometry x="217" y="560" width="173" height="20" as="geometry" />
        </mxCell>
        <mxCell id="iGylrA7GRQRQv3eG05Y3-12" value="Встраивается как часть UI" style="edgeLabel;html=1;align=center;verticalAlign=middle;resizable=0;points=[];" vertex="1" connectable="0" parent="1">
          <mxGeometry x="239.99505062082181" y="690.0021795709525" as="geometry" />
        </mxCell>
      </root>
    </mxGraphModel>
  </diagram>
</mxfile>
